PathFileType	3	(X/Y/Z)	walking_1__view2_aligned.trc
DataRate	CameraRate	NumFrames	NumMarkers	Units	OrigDataRate	OrigDataStartFrame	OrigNumFrames
100.0	100.0	12	19	mm	100.0	4579	6105
Frame#	Time	pelvis			neck			head			hip_left			hip_right			knee_left			knee_right			ankle_left			ankle_right			heel_left			heel_right			toe_left			toe_right			shoulder_left			shoulder_right			elbow_left			elbow_right			wrist_left			wrist_right			
		X1	Y1	Z1	X2	Y2	Z2	X3	Y3	Z3	X4	Y4	Z4	X5	Y5	Z5	X6	Y6	Z6	X7	Y7	Z7	X8	Y8	Z8	X9	Y9	Z9	X10	Y10	Z10	X11	Y11	Z11	X12	Y12	Z12	X13	Y13	Z13	X14	Y14	Z14	X15	Y15	Z15	X16	Y16	Z16	X17	Y17	Z17	X18	Y18	Z18	X19	Y19	Z19	
4579	45.78000	74.576253	931.080835	182.121745	59.705504	1497.810711	245.125823	31.821642	1596.699336	386.538299	152.252339	935.051012	180.152487	-3.100218	927.110695	184.090953	170.218254	495.180026	136.828216	-47.931899	543.384473	408.828826	155.702479	99.530755	-8.129578	-80.531360	166.199727	342.831719	147.359892	56.590550	-50.543159	-78.670082	127.757813	306.403767	172.240745	9.318131	167.104821	-105.201341	79.996643	495.592344	243.256305	1440.906853	231.383764	-108.083466	1440.994147	188.238833	313.879242	1150.642987	251.960263	-165.308830	1152.134481	127.904569	305.039672	915.987795	394.042773	-233.772467	879.732831	142.626809
4580	45.79000	73.239000	930.898396	182.309608	57.986055	1497.642087	245.734740	29.508496	1596.580087	387.211002	150.838459	934.734527	180.520282	-4.360796	927.062297	184.098890	169.591808	494.587653	134.760159	-48.208683	543.345167	408.657301	156.056138	103.015881	-16.262572	-79.742177	161.866620	351.241738	147.851155	61.104326	-59.169638	-77.879252	121.950082	315.546359	172.741021	10.160122	156.000789	-104.285406	79.692506	508.225814	241.614999	1441.058789	232.645185	-109.468061	1440.743512	187.883948	312.282299	1150.915139	253.164323	-166.474995	1152.041642	126.174116	301.860535	916.318948	396.021639	-236.002541	879.214304	138.507178
4581	45.80000	71.901748	930.715956	182.497470	56.266606	1497.473463	246.343658	27.195350	1596.460838	387.883705	149.424580	934.418041	180.888077	-5.621374	927.013899	184.106826	168.965362	493.995281	132.692102	-48.485467	543.305860	408.485775	156.409798	106.501006	-24.395566	-78.952993	157.533514	359.651757	148.342419	65.618102	-67.796116	-77.088421	116.142351	324.688951	173.241296	11.002114	144.896756	-103.369471	79.388370	520.859285	239.973694	1441.210724	233.906607	-110.852657	1440.492877	187.529062	310.685357	1151.187290	254.368383	-167.641161	1151.948802	124.443664	298.681399	916.650100	398.000505	-238.232615	878.695778	134.387546
4582	45.81000	70.564495	930.533516	182.685333	54.547157	1497.304839	246.952576	24.882204	1596.341589	388.556408	148.010701	934.101555	181.255872	-6.881952	926.965501	184.114763	168.338916	493.402908	130.624045	-48.762251	543.266554	408.314249	156.763458	109.986132	-32.528560	-78.163810	153.200407	368.061777	148.833682	70.131878	-76.422594	-76.297590	110.334619	333.831543	173.741572	11.844105	133.792724	-102.453537	79.084233	533.492755	238.332388	1441.362660	235.168028	-112.237252	1440.242242	187.174177	309.088414	1151.459441	255.572443	-168.807326	1151.855963	122.713211	295.502263	916.981252	399.979371	-240.462689	878.177252	130.267915
4583	45.82000	69.227242	930.351077	182.873196	52.827708	1497.136215	247.561494	22.569058	1596.222339	389.229112	146.596821	933.785070	181.623666	-8.142530	926.917103	184.122700	167.712469	492.810535	128.555988	-49.039035	543.227248	408.142723	157.117118	113.471257	-40.661554	-77.374626	148.867300	376.471796	149.324946	74.645655	-85.049072	-75.506759	104.526888	342.974135	174.241848	12.686096	122.688692	-101.537602	78.780097	546.126226	236.691082	1441.514596	236.429450	-113.621848	1439.991607	186.819292	307.491472	1151.731593	256.776503	-169.973492	1151.763123	120.982759	292.323126	917.312404	401.958237	-242.692763	877.658726	126.148284
4584	45.83000	67.889989	930.168637	183.061058	51.108259	1496.967591	248.170412	20.255912	1596.103090	389.901815	145.182942	933.468584	181.991461	-9.403108	926.868705	184.130636	167.086023	492.218162	126.487930	-49.315819	543.187941	407.971198	157.470777	116.956383	-48.794548	-76.585443	144.534193	384.881815	149.816210	79.159431	-93.675550	-74.715928	98.719156	352.116727	174.742123	13.528087	111.584659	-100.621668	78.475960	558.759696	235.049776	1441.666531	237.690871	-115.006443	1439.740972	186.464407	305.894529	1152.003744	257.980564	-171.139658	1151.670284	119.252306	289.143990	917.643556	403.937103	-244.922837	877.140200	122.028652
4585	45.84000	66.552736	929.986198	183.248921	49.388810	1496.798967	248.779329	17.942766	1595.983841	390.574518	143.769062	933.152098	182.359256	-10.663686	926.820307	184.138573	166.459577	491.625789	124.419873	-49.592602	543.148635	407.799672	157.824437	120.441508	-56.927542	-75.796259	140.201087	393.291835	150.307473	83.673207	-102.302028	-73.925098	92.911425	361.259320	175.242399	14.370079	100.480627	-99.705733	78.171824	571.393167	233.408470	1441.818467	238.952293	-116.391039	1439.490337	186.109521	304.297587	1152.275895	259.184624	-172.305823	1151.577444	117.521853	285.964854	917.974708	405.915969	-247.152911	876.621673	117.909021
4586	45.85000	65.215484	929.803758	183.436783	47.669361	1496.630343	249.388247	15.629620	1595.864591	391.247221	142.355183	932.835613	182.727051	-11.924264	926.771908	184.146510	165.833131	491.033417	122.351816	-49.869386	543.109329	407.628146	158.178097	123.926633	-65.060536	-75.007076	135.867980	401.701854	150.798737	88.186983	-110.928506	-73.134267	87.103693	370.401912	175.742675	15.212070	89.376594	-98.789799	77.867687	584.026638	231.767164	1441.970403	240.213715	-117.775635	1439.239703	185.754636	302.700644	1152.548047	260.388684	-173.471989	1151.484605	115.791401	282.785717	918.305860	407.894835	-249.382985	876.103147	113.789389
4587	45.86000	63.878231	929.621319	183.624646	45.949912	1496.461719	249.997165	13.316474	1595.745342	391.919924	140.941304	932.519127	183.094846	-13.184842	926.723510	184.154446	165.206685	490.441044	120.283759	-50.146170	543.070022	407.456621	158.531757	127.411759	-73.193530	-74.217892	131.534873	410.111873	151.290000	92.700759	-119.554984	-72.343436	81.295962	379.544504	176.242951	16.054061	78.272562	-97.873864	77.563551	596.660108	230.125858	1442.122338	241.475136	-119.160230	1438.989068	185.399751	301.103702	1152.820198	261.592744	-174.638154	1151.391766	114.060948	279.606581	918.637012	409.873701	-251.613059	875.584621	109.669758
4588	45.87000	59.576285	929.721448	183.740283	41.195932	1496.462755	250.325772	8.597172	1595.724296	392.290350	136.622601	932.529136	183.350264	-17.470032	926.913760	184.130303	162.623027	490.721270	122.787506	-52.729483	541.944114	404.903486	156.892647	131.988676	-77.580348	-75.125651	128.843761	411.328907	149.763287	98.426139	-124.564029	-73.206357	77.978758	381.142118	174.226367	17.481555	70.753804	-98.110494	76.677199	599.661050	225.207663	1442.475528	241.668642	-123.856015	1438.955174	185.550276	296.798401	1153.414693	260.747528	-178.858069	1151.332621	114.412947	276.693599	918.691222	406.722522	-255.153842	875.510022	110.048466
4589	45.88000	55.274339	929.821578	183.855919	36.441951	1496.463790	250.654378	3.877870	1595.703249	392.660777	132.303898	932.539146	183.605682	-21.755221	927.104011	184.106159	160.039370	491.001497	125.291253	-55.312795	540.818205	402.350352	155.253536	136.565594	-81.967166	-76.033410	126.152648	412.545940	148.236574	104.151520	-129.573074	-74.069278	74.661555	382.739733	172.209782	18.909048	63.235047	-98.347123	75.790848	602.661992	220.289467	1442.828719	241.862149	-128.551800	1438.921281	185.700801	292.493100	1154.009188	259.902312	-183.077983	1151.273477	114.764946	273.780616	918.745433	403.571342	-258.694625	875.435423	110.427174
4590	45.89000	50.972393	929.921708	183.971556	31.687971	1496.464825	250.982985	-0.841432	1595.682203	393.031203	127.985195	932.549155	183.861101	-26.040411	927.294261	184.082016	157.455713	491.281724	127.795001	-57.896107	539.692297	399.797218	153.614426	141.142511	-86.353984	-76.941169	123.461536	413.762973	146.709860	109.876900	-134.582119	-74.932200	71.344351	384.337347	170.193198	20.336541	55.716289	-98.583753	74.904496	605.662934	215.371272	1443.181909	242.055655	-133.247585	1438.887388	185.851326	288.187798	1154.603682	259.057096	-187.297897	1151.214333	115.116945	270.867633	918.799643	400.420163	-262.235408	875.360825	110.805882
